<svg xmlns="http://www.w3.org/2000/svg" width="256" height="256"><path fill-opacity=".016" d="M0 128.004v128.004l128.25-.254 128.25-.254.254-127.75L257.008 0H0v128.004m.485.496c0 70.4.119 99.053.265 63.672.146-35.38.146-92.98 0-128C.604 29.153.485 58.1.485 128.5" fill="#5fb2f2" fill-rule="evenodd"/><path fill-opacity=".091" d="M70.13 1.758c-3.093 5.779-14.424 49.806-16.566 64.37-1.765 11.996-2.056 36.249-.546 45.55 3.624 22.331 15.706 39.669 35.415 50.822 11.476 6.494 18.72 13.124 21.631 19.798 3.062 7.021 3.731 19.049 1.537 27.615-1.289 5.03-1.374 6.656-.408 7.82 1.317 1.587 2.054 4.533.969 3.875-.364-.221-1.526.751-2.583 2.16-1.176 1.569-1.37 2.247-.5 1.75 1.092-.624 1.157-.525.278.428-.863.937-1.653.966-3.234.12-1.764-.944-2.88-.579-7.107 2.329-4.994 3.435-6.542 4.071-17.043 6.993-7.072 1.968-13.269 7.201-15.526 13.112-3.056 8.001-7.168 7.5 61.553 7.5 67.618 0 64.261.351 62.004-6.487-2.458-7.449-8.019-11.733-19.534-15.048-8.355-2.405-12.321-4.63-17.169-9.632-6.621-6.832-9.711-14.563-10.124-25.333-.285-7.435.043-10.034 1.885-14.949 2.945-7.855 9.238-14.44 18.795-19.67 20.385-11.152 31.553-24.44 37.34-44.426 2.1-7.254 2.3-9.893 2.265-29.955-.034-19.995-.282-23.139-2.716-34.5-2.87-13.398-9.539-38.38-13.079-49L185.5.5 128.29.242C74.382-.001 71.024.086 70.13 1.758m30.62 6.991c13.338.158 35.163.158 48.5 0 13.338-.157 2.425-.286-24.25-.286s-37.588.129-24.25.286M62.079 66.583c.048 1.165.285 1.402.604.605.289-.722.253-1.585-.079-1.917-.332-.332-.568.258-.525 1.312M61.158 76c0 1.375.227 1.938.504 1.25.278-.687.278-1.812 0-2.5-.277-.687-.504-.125-.504 1.25m8.655 2.683c.721.289 1.584.253 1.916-.079.332-.332-.258-.568-1.312-.525-1.165.048-1.402.285-.604.604m46 94c.721.289 1.584.253 1.916-.079.332-.332-.258-.568-1.312-.525-1.165.048-1.402.285-.604.604m6.382 25.817c.02 1.65.244 2.204.498 1.231.254-.973.237-2.323-.037-3-.274-.677-.481.119-.461 1.769m-44.85 48.75c-.255.412 21.276.649 47.846.525 26.57-.123 40.659-.347 31.309-.497-43.607-.697-78.735-.71-79.155-.028" fill="#5fb2f2" fill-rule="evenodd"/><path fill-opacity=".548" d="M70.608 2.25c-1.62 2.535-9.243 28.755-13.048 44.884-6.083 25.78-7.161 55.016-2.662 72.166 5.21 19.863 18.581 35.514 39.923 46.732 7.711 4.053 13.41 10.308 16.237 17.821 2.188 5.813 2.194 6.108.688 30.647-.236 3.832-.12 4 2.754 4 2.746 0 3.157-.467 4.849-5.5 3.571-10.619 2.104-27.32-3.336-37.97l-1.803-3.53 13.818.302 13.818.302-3.168 6.698c-5.448 11.519-4.947 27.779 1.263 40.908 5.521 11.675 13.739 18.332 28.059 22.729 4.675 1.435 9.374 3.274 10.441 4.085 1.719 1.307-4.062 1.474-50.5 1.459l-52.441-.017 3.241-2.075c1.783-1.142 5.813-2.748 8.957-3.569 6.494-1.696 12.289-4.416 17.109-8.031 2.531-1.897 3.235-3.104 3-5.136-.423-3.655-3.865-3.975-8.09-.753-4.038 3.081-8.933 5.191-15.376 6.63-10.293 2.298-18.958 10.732-18.161 17.676l.32 2.792h123l.32-2.792c.191-1.662-.689-4.516-2.175-7.05-2.901-4.95-8.555-8.335-19.219-11.506-16.112-4.79-25.885-18.44-25.885-36.152 0-13.318 6.138-24.914 16.19-30.583 11.455-6.461 15.692-9.153 20.087-12.762 10.565-8.675 18.502-21.25 22.418-35.519 1.772-6.457 2.105-10.569 2.156-26.636.063-19.855-.756-27.292-5.009-45.5-3.672-15.725-11.356-42.192-12.991-44.75L183.954 0H72.046l-1.438 2.25m1.055 22.5c-8.256 29.607-12.719 53.03-10.244 53.762.595.176 4.006.565 7.581.865 9.211.772 19.5 3.697 41.362 11.757 16.167 5.96 25.444 8.657 39.494 11.483 1.295.261 2.585 1.354 2.866 2.429.741 2.833 8.461 2.793 10.406-.054.819-1.2 3.757-2.623 7.291-3.532 8.048-2.07 16.42-6.701 21.531-11.909l4.25-4.331-1.147-10.86c-1.372-12.998-4.396-26.931-10.754-49.557L179.577 8H76.333l-4.67 16.75" fill="#5fb2f2" fill-rule="evenodd"/><path fill-opacity=".981" d="M71.257 1.25C69.694 3.229 59.199 41.065 56.515 54.4c-6.496 32.276-5.172 59.029 3.865 78.1 6.133 12.942 15.749 22.498 31.62 31.422 14.44 8.118 20.685 16.879 21.712 30.452.412 5.444.085 9.576-1.165 14.717-1.599 6.577-1.609 7.276-.123 8.761 5.853 5.854 10.726-15.125 7.189-30.956-.908-4.068-2.678-9.196-3.933-11.396l-2.28-4h14.799c8.139 0 14.684.225 14.544.5-.14.275-1.433 2.75-2.874 5.5-4.83 9.217-5.85 18.206-3.386 29.835 3.921 18.506 15.182 30.642 32.101 34.597 5.501 1.285 11.416 4.422 11.416 6.053 0 .674-17.72 1.004-52.75.983l-52.75-.031 2.76-2.429c1.518-1.336 6.018-3.398 10-4.582 12.819-3.812 21.802-9.715 20.389-13.398-1.115-2.906-3.431-2.692-8.807.812-2.938 1.916-9.392 4.693-14.342 6.171-7.632 2.279-9.631 3.344-13.152 7.004-4.507 4.685-6.288 9.648-4.314 12.026 1.821 2.194 120.111 2.194 121.932 0 3.768-4.541-4.681-14.985-14.478-17.897-11.755-3.494-14.593-4.887-19.981-9.812a39.707 39.707 0 01-8.733-11.639c-3.07-6.236-3.274-7.307-3.274-17.172 0-9.465.277-11.086 2.762-16.146 3.545-7.217 10.019-13.17 20.975-19.284 33.697-18.806 44.287-53.266 33.245-108.191-2.679-13.323-13.174-51.168-14.739-53.15-1.441-1.823-112.045-1.823-113.486 0m1.421 18C65.679 43.098 60 68.94 60 76.943c0 1.493 1.179 1.915 6.932 2.482 9.652.951 21.969 4.414 43.163 12.137C127.026 97.731 144.949 103 149.006 103c2.476 0 4.275 2.539 3.509 4.952-.476 1.501-1.5 2.046-3.832 2.041-5.051-.011-18.095-3.457-32.183-8.502-26.138-9.36-33.122-11.539-43.26-13.495-15.026-2.9-13.621-4.066-12.954 10.754.949 21.1 5.311 32.884 16.44 44.411 27.282 28.26 71.476 29.248 100.185 2.241 11.619-10.931 16.837-22.551 18.646-41.527l.704-7.375-2.381 2.137c-7.972 7.157-28.138 13.991-30.415 10.306-.359-.581-.401-2.06-.094-3.286.442-1.762 1.705-2.47 6.016-3.374 7.476-1.568 15.984-5.912 21.772-11.116 4.794-4.31 4.841-4.412 4.837-10.51-.008-11.879-3.818-30.459-12.184-59.407L179.694 7H76.273l-3.595 12.25" fill="#5fb2f2" fill-rule="evenodd"/></svg>